<svg xmlns="http://www.w3.org/2000/svg" xmlns:v="https://svgstorm.com"
viewBox = "0 0 1198 798"
width="1198"
height="798">
<g fill="None" fill-opacity="0.0" stroke="#FEFEFE" stroke-opacity="1.00" stroke-width="0.3"><path d="
M 0.00 798.00 
L 1198.00 798.00
L 1198.00 0.00
L 0.00 0.00
L 0.00 798.00
M 785.00 179.00 
C 787.01 188.36 785.75 198.79 786.00 209.00 C 786.25 219.21 785.89 229.63 786.00 240.00 C 786.11 250.37 785.95 261.56 786.00 272.00 C 786.05 282.44 785.99 292.53 786.00 303.00 C 786.01 313.47 786.02 324.53 786.00 335.00 C 785.98 345.47 786.07 355.55 786.00 366.00 C 785.93 376.45 786.15 387.60 786.00 398.00 C 785.85 408.40 786.35 418.74 786.00 429.00 C 785.65 439.26 786.76 451.03 786.00 461.00 C 785.24 470.97 787.73 482.72 786.00 492.00 C 784.27 501.28 790.19 515.81 785.00 523.00
C 780.49 529.25 767.99 529.62 761.92 534.92 C 755.86 540.23 745.65 542.03 738.77 546.77 C 731.89 551.51 723.24 554.57 715.77 558.77 C 708.30 562.97 699.67 567.11 691.92 570.92 C 684.18 574.74 676.75 579.43 668.92 582.92 C 661.10 586.42 653.51 591.36 645.92 594.92 C 638.33 598.48 629.51 604.43 621.97 606.97 C 614.44 609.52 606.78 619.18 598.92 618.92 C 591.07 618.67 583.47 609.86 575.77 607.23 C 568.07 604.60 559.86 598.17 551.92 595.08 C 543.99 591.99 536.91 586.42 528.92 583.08 C 520.94 579.73 513.81 574.75 505.92 571.08 C 498.04 567.40 489.96 562.73 482.30 558.70 C 474.65 554.66 466.76 551.16 459.25 546.75 C 451.75 542.33 443.67 539.20 435.92 535.08 C 428.18 530.95 420.34 525.84 412.00 523.00
C 412.00 408.33 412.00 293.67 412.00 179.00
C 421.83 183.13 431.01 188.48 440.69 193.31 C 450.38 198.13 459.22 203.28 469.08 207.92 C 478.93 212.57 488.24 218.29 498.08 222.92 C 507.91 227.56 516.41 232.95 526.23 237.77 C 536.04 242.59 545.74 246.95 555.23 252.77 C 564.71 258.59 574.44 260.34 583.70 267.30 C 592.95 274.27 603.97 275.56 613.23 268.23 C 622.49 260.90 632.20 259.57 641.69 253.70 C 651.19 247.82 660.73 243.65 670.25 238.25 C 679.76 232.84 689.30 229.13 698.70 223.70 C 708.10 218.26 718.28 214.08 727.70 208.70 C 737.11 203.31 746.63 199.26 756.08 194.08 C 765.52 188.89 775.43 184.00 785.00 179.00 Z"/>
</g>
<g fill="None" fill-opacity="0.0" stroke="#010101" stroke-opacity="1.00" stroke-width="0.3"><path d="
M 785.00 523.00 
C 788.46 516.00 783.45 504.97 785.00 497.00 C 786.55 489.03 784.33 479.46 785.00 471.00 C 785.67 462.54 784.69 452.66 785.00 444.00 C 785.31 435.34 784.86 426.76 785.00 418.00 C 785.14 409.24 784.94 399.81 785.00 391.00 C 785.06 382.19 784.97 373.83 785.00 365.00 C 785.03 356.17 784.99 346.84 785.00 338.00 C 785.01 329.16 784.99 320.84 785.00 312.00 C 785.01 303.16 785.00 293.84 785.00 285.00 C 785.00 276.16 785.00 267.85 785.00 259.00 C 785.00 250.15 785.00 240.85 785.00 232.00 C 785.00 223.15 785.00 214.87 785.00 206.00 C 785.00 197.13 785.00 187.90 785.00 179.00
C 775.43 184.00 765.52 188.89 756.08 194.08 C 746.63 199.26 737.11 203.31 727.70 208.70 C 718.28 214.08 708.10 218.26 698.70 223.70 C 689.30 229.13 679.76 232.84 670.25 238.25 C 660.73 243.65 651.19 247.82 641.69 253.70 C 632.20 259.57 622.49 260.90 613.23 268.23 C 603.97 275.56 592.95 274.27 583.70 267.30 C 574.44 260.34 564.71 258.59 555.23 252.77 C 545.74 246.95 536.04 242.59 526.23 237.77 C 516.41 232.95 507.91 227.56 498.08 222.92 C 488.24 218.29 478.93 212.57 469.08 207.92 C 459.22 203.28 450.38 198.13 440.69 193.31 C 431.01 188.48 421.83 183.13 412.00 179.00
C 412.00 293.67 412.00 408.33 412.00 523.00
C 420.34 525.84 428.18 530.95 435.92 535.08 C 443.67 539.20 451.75 542.33 459.25 546.75 C 466.76 551.16 474.65 554.66 482.30 558.70 C 489.96 562.73 498.04 567.40 505.92 571.08 C 513.81 574.75 520.94 579.73 528.92 583.08 C 536.91 586.42 543.99 591.99 551.92 595.08 C 559.86 598.17 568.07 604.60 575.77 607.23 C 583.47 609.86 591.07 618.67 598.92 618.92 C 606.78 619.18 614.44 609.52 621.97 606.97 C 629.51 604.43 638.33 598.48 645.92 594.92 C 653.51 591.36 661.10 586.42 668.92 582.92 C 676.75 579.43 684.18 574.74 691.92 570.92 C 699.67 567.11 708.30 562.97 715.77 558.77 C 723.24 554.57 731.89 551.51 738.77 546.77 C 745.65 542.03 755.86 540.23 761.92 534.92 C 767.99 529.62 780.49 529.25 785.00 523.00
M 766.00 211.00 
C 766.01 311.00 766.00 411.00 766.00 511.00
C 757.03 514.20 749.54 519.82 740.77 523.77 C 732.00 527.72 723.73 532.90 714.92 536.92 C 706.12 540.95 698.11 546.19 689.31 550.31 C 680.50 554.42 672.40 559.07 663.77 563.77 C 655.14 568.47 646.29 571.51 637.92 576.92 C 629.55 582.32 620.60 583.82 612.30 590.30 C 604.01 596.78 594.81 596.64 586.31 590.70 C 577.80 584.75 569.45 582.12 560.77 577.23 C 552.09 572.34 543.71 568.42 534.92 564.08 C 526.14 559.73 518.07 554.87 509.31 550.69 C 500.54 546.52 492.52 541.39 483.77 537.23 C 475.02 533.06 466.39 528.49 457.92 524.08 C 449.46 519.66 441.21 515.62 432.92 511.08
C 432.00 411.00 432.00 311.00 432.00 211.00
C 442.24 216.04 451.91 221.76 462.23 226.77 C 472.55 231.78 482.39 237.18 492.69 242.31 C 503.00 247.43 512.70 252.76 523.08 257.92 C 533.45 263.09 542.91 268.07 553.23 273.77 C 563.55 279.47 573.56 282.22 583.69 289.31 C 593.83 296.39 604.55 297.06 614.70 289.69 C 624.84 282.33 634.88 280.11 645.08 274.08 C 655.27 268.04 665.01 263.66 675.23 258.23 C 685.45 252.80 695.13 247.67 705.23 242.23 C 715.33 236.79 725.78 232.38 735.70 226.70 C 745.61 221.01 756.06 216.67 766.00 211.00 Z"/>
</g>
<g fill="None" fill-opacity="0.0" stroke="#606060" stroke-opacity="1.00" stroke-width="0.3"><path d="
M 785.00 523.00 
C 790.19 515.81 784.27 501.28 786.00 492.00 C 787.73 482.72 785.24 470.97 786.00 461.00 C 786.76 451.03 785.65 439.26 786.00 429.00 C 786.35 418.74 785.85 408.40 786.00 398.00 C 786.15 387.60 785.93 376.45 786.00 366.00 C 786.07 355.55 785.98 345.47 786.00 335.00 C 786.02 324.53 786.01 313.47 786.00 303.00 C 785.99 292.53 786.05 282.44 786.00 272.00 C 785.95 261.56 786.11 250.37 786.00 240.00 C 785.89 229.63 786.25 219.21 786.00 209.00 C 785.75 198.79 787.01 188.36 785.00 179.00
C 785.00 187.90 785.00 197.13 785.00 206.00 C 785.00 214.87 785.00 223.15 785.00 232.00 C 785.00 240.85 785.00 250.15 785.00 259.00 C 785.00 267.85 785.00 276.16 785.00 285.00 C 785.00 293.84 785.01 303.16 785.00 312.00 C 784.99 320.84 785.01 329.16 785.00 338.00 C 784.99 346.84 785.03 356.17 785.00 365.00 C 784.97 373.83 785.06 382.19 785.00 391.00 C 784.94 399.81 785.14 409.24 785.00 418.00 C 784.86 426.76 785.31 435.34 785.00 444.00 C 784.69 452.66 785.67 462.54 785.00 471.00 C 784.33 479.46 786.55 489.03 785.00 497.00 C 783.45 504.97 788.46 516.00 785.00 523.00 Z"/>
</g>
<g fill="None" fill-opacity="0.0" stroke="#FBFBFB" stroke-opacity="1.00" stroke-width="0.3"><path d="
M 766.00 211.00 
C 756.06 216.67 745.61 221.01 735.70 226.70 C 725.78 232.38 715.33 236.79 705.23 242.23 C 695.13 247.67 685.45 252.80 675.23 258.23 C 665.01 263.66 655.27 268.04 645.08 274.08 C 634.88 280.11 624.84 282.33 614.70 289.69 C 604.55 297.06 593.83 296.39 583.69 289.31 C 573.56 282.22 563.55 279.47 553.23 273.77 C 542.91 268.07 533.45 263.09 523.08 257.92 C 512.70 252.76 503.00 247.43 492.69 242.31 C 482.39 237.18 472.55 231.78 462.23 226.77 C 451.91 221.76 442.24 216.04 432.00 211.00
C 432.00 311.00 432.00 411.00 432.00 511.00
C 441.21 515.62 449.46 519.66 457.92 524.08 C 466.39 528.49 475.02 533.06 483.77 537.23 C 492.52 541.39 500.54 546.52 509.31 550.69 C 518.07 554.87 526.14 559.73 534.92 564.08 C 543.71 568.42 552.09 572.34 560.77 577.23 C 569.45 582.12 577.80 584.75 586.31 590.70 C 594.81 596.64 604.01 596.78 612.30 590.30 C 620.60 583.82 629.55 582.32 637.92 576.92 C 646.29 571.51 655.14 568.47 663.77 563.77 C 672.40 559.07 680.50 554.42 689.31 550.31 C 698.11 546.19 706.12 540.95 714.92 536.92 C 723.73 532.90 732.00 527.72 740.77 523.77 C 749.54 519.82 757.03 514.20 766.00 511.00
C 766.00 411.00 766.01 311.00 766.00 211.00
M 485.00 298.00 
C 485.00 304.69 485.00 311.31 485.00 318.00 C 485.00 324.69 485.00 331.29 485.00 338.00 C 485.00 344.71 485.00 351.23 485.00 358.00 C 485.00 364.77 485.01 372.24 485.00 379.00 C 484.99 385.76 485.02 392.30 485.00 399.00 C 484.98 405.70 485.05 412.33 485.00 419.00 C 484.95 425.67 485.11 432.37 485.00 439.00 C 484.89 445.63 485.24 453.54 485.00 460.00 C 484.76 466.46 485.55 474.01 485.00 480.00 C 484.45 485.99 486.23 494.93 485.00 500.00 C 483.77 505.07 488.05 517.52 484.00 520.00
C 480.50 522.14 474.26 513.78 469.77 513.23 C 465.28 512.68 461.55 507.33 455.92 506.08 C 450.30 504.82 446.69 499.72 448.00 493.00 C 449.31 486.28 447.44 478.96 448.00 472.00 C 448.57 465.04 447.73 457.04 448.00 450.00 C 448.27 442.96 447.88 436.02 448.00 429.00 C 448.12 421.98 447.95 415.03 448.00 408.00 C 448.06 400.97 447.98 394.05 448.00 387.00 C 448.02 379.95 447.99 373.10 448.00 366.00 C 448.01 358.90 447.99 351.11 448.00 344.00 C 448.01 336.89 448.00 330.06 448.00 323.00 C 448.00 315.94 448.00 309.05 448.00 302.00 C 448.00 294.95 448.00 288.07 448.00 281.00 C 448.00 273.93 448.00 267.15 448.00 260.00 C 448.00 252.85 448.00 245.19 448.00 238.00
C 495.94 261.46 543.17 287.32 591.00 311.00
C 591.00 399.34 591.00 487.66 591.00 576.00
C 579.17 572.58 577.31 565.75 564.77 562.23 C 552.24 558.71 553.19 545.83 554.00 533.00 C 554.81 520.17 553.64 506.11 554.00 493.00 C 554.36 479.89 553.83 466.23 554.00 453.00 C 554.17 439.77 553.92 426.29 554.00 413.00 C 554.08 399.71 553.96 386.31 554.00 373.00 C 554.04 359.69 553.97 346.31 554.00 333.00
C 548.45 331.05 543.56 327.26 538.00 325.00
C 538.00 399.33 538.00 473.67 538.00 548.00
C 525.10 543.38 513.91 534.62 501.00 530.00
C 501.03 518.28 500.96 506.74 501.00 495.00 C 501.04 483.26 500.93 471.80 501.00 460.00 C 501.07 448.20 500.86 435.83 501.00 424.00 C 501.14 412.17 500.68 400.87 501.00 389.00 C 501.32 377.13 500.31 364.91 501.00 353.00 C 501.69 341.09 499.42 330.01 501.00 318.00 C 502.58 305.99 495.53 301.34 485.00 298.00
M 750.00 238.00 
C 752.57 258.47 746.57 282.93 750.00 303.00 C 753.43 323.07 738.90 332.87 727.75 345.75 C 716.60 358.64 707.58 367.76 697.08 380.08 C 686.59 392.40 675.48 401.92 667.00 415.00
C 676.94 419.38 687.40 424.98 697.08 429.92 C 706.75 434.87 716.87 440.53 726.23 445.77 C 735.59 451.01 751.99 454.29 750.00 467.00 C 748.01 479.71 755.33 499.64 743.31 505.31 C 731.28 510.97 725.27 516.29 713.00 520.00
C 712.22 509.31 714.04 494.26 713.00 484.00 C 711.96 473.74 698.89 474.31 691.92 469.08 C 684.96 463.84 676.25 460.94 668.75 456.25 C 661.26 451.55 651.68 448.28 644.00 444.00
C 643.98 457.58 644.03 472.56 644.00 486.00 C 643.97 499.44 644.05 515.07 644.00 528.00 C 643.95 540.93 647.58 556.77 635.31 561.31 C 623.03 565.84 618.40 571.05 607.00 576.00
C 607.00 487.67 607.00 399.33 607.00 311.00
C 619.91 306.42 631.13 297.69 644.00 293.00
C 644.66 323.17 642.67 354.66 645.00 384.00
C 651.91 374.49 660.45 367.04 667.75 357.75 C 675.05 348.46 684.37 341.96 690.92 331.92 C 697.46 321.87 710.95 317.88 713.00 305.00 C 715.05 292.11 711.47 269.75 713.00 256.00
C 725.86 251.31 737.07 242.59 750.00 238.00 Z"/>
</g>
<g fill="None" fill-opacity="0.0" stroke="#010101" stroke-opacity="1.00" stroke-width="0.3"><path d="
M 484.00 520.00 
C 484.67 446.16 482.67 371.01 485.00 298.00
C 495.53 301.34 502.58 305.99 501.00 318.00 C 499.42 330.01 501.69 341.09 501.00 353.00 C 500.31 364.91 501.32 377.13 501.00 389.00 C 500.68 400.87 501.14 412.17 501.00 424.00 C 500.86 435.83 501.07 448.20 501.00 460.00 C 500.93 471.80 501.04 483.26 501.00 495.00 C 500.96 506.74 501.03 518.28 501.00 530.00
C 513.91 534.62 525.10 543.38 538.00 548.00
C 538.00 473.67 538.00 399.33 538.00 325.00
C 543.56 327.26 548.45 331.05 554.00 333.00
C 553.97 346.31 554.04 359.69 554.00 373.00 C 553.96 386.31 554.08 399.71 554.00 413.00 C 553.92 426.29 554.17 439.77 554.00 453.00 C 553.83 466.23 554.36 479.89 554.00 493.00 C 553.64 506.11 554.81 520.17 554.00 533.00 C 553.19 545.83 552.24 558.71 564.77 562.23 C 577.31 565.75 579.17 572.58 591.00 576.00
C 591.00 487.66 591.00 399.34 591.00 311.00
C 543.17 287.32 495.94 261.46 448.00 238.00
C 448.00 245.19 448.00 252.85 448.00 260.00 C 448.00 267.15 448.00 273.93 448.00 281.00 C 448.00 288.07 448.00 294.95 448.00 302.00 C 448.00 309.05 448.00 315.94 448.00 323.00 C 448.00 330.06 448.01 336.89 448.00 344.00 C 447.99 351.11 448.01 358.90 448.00 366.00 C 447.99 373.10 448.02 379.95 448.00 387.00 C 447.98 394.05 448.06 400.97 448.00 408.00 C 447.95 415.03 448.12 421.98 448.00 429.00 C 447.88 436.02 448.27 442.96 448.00 450.00 C 447.73 457.04 448.57 465.04 448.00 472.00 C 447.44 478.96 449.31 486.28 448.00 493.00 C 446.69 499.72 450.30 504.82 455.92 506.08 C 461.55 507.33 465.28 512.68 469.77 513.23 C 474.26 513.78 480.50 522.14 484.00 520.00 Z"/>
</g>
<g fill="None" fill-opacity="0.0" stroke="#010101" stroke-opacity="1.00" stroke-width="0.3"><path d="
M 750.00 238.00 
C 737.07 242.59 725.86 251.31 713.00 256.00
C 711.47 269.75 715.05 292.11 713.00 305.00 C 710.95 317.88 697.46 321.87 690.92 331.92 C 684.37 341.96 675.05 348.46 667.75 357.75 C 660.45 367.04 651.91 374.49 645.00 384.00
C 642.67 354.66 644.66 323.17 644.00 293.00
C 631.13 297.69 619.91 306.42 607.00 311.00
C 607.00 399.33 607.00 487.67 607.00 576.00
C 618.40 571.05 623.03 565.84 635.31 561.31 C 647.58 556.77 643.95 540.93 644.00 528.00 C 644.05 515.07 643.97 499.44 644.00 486.00 C 644.03 472.56 643.98 457.58 644.00 444.00
C 651.68 448.28 661.26 451.55 668.75 456.25 C 676.25 460.94 684.96 463.84 691.92 469.08 C 698.89 474.31 711.96 473.74 713.00 484.00 C 714.04 494.26 712.22 509.31 713.00 520.00
C 725.27 516.29 731.28 510.97 743.31 505.31 C 755.33 499.64 748.01 479.71 750.00 467.00 C 751.99 454.29 735.59 451.01 726.23 445.77 C 716.87 440.53 706.75 434.87 697.08 429.92 C 687.40 424.98 676.94 419.38 667.00 415.00
C 675.48 401.92 686.59 392.40 697.08 380.08 C 707.58 367.76 716.60 358.64 727.75 345.75 C 738.90 332.87 753.43 323.07 750.00 303.00 C 746.57 282.93 752.57 258.47 750.00 238.00 Z"/>
</g>
<g fill="None" fill-opacity="0.0" stroke="#646464" stroke-opacity="1.00" stroke-width="0.3"><path d="
M 484.00 520.00 
C 488.05 517.52 483.77 505.07 485.00 500.00 C 486.23 494.93 484.45 485.99 485.00 480.00 C 485.55 474.01 484.76 466.46 485.00 460.00 C 485.24 453.54 484.89 445.63 485.00 439.00 C 485.11 432.37 484.95 425.67 485.00 419.00 C 485.05 412.33 484.98 405.70 485.00 399.00 C 485.02 392.30 484.99 385.76 485.00 379.00 C 485.01 372.24 485.00 364.77 485.00 358.00 C 485.00 351.23 485.00 344.71 485.00 338.00 C 485.00 331.29 485.00 324.69 485.00 318.00 C 485.00 311.31 485.00 304.69 485.00 298.00
C 482.67 371.01 484.67 446.16 484.00 520.00 Z"/>
</g>
<g fill="#FEFEFE" fill-opacity="1.00" stroke="None">
<path d="
M 0.00 798.00 
L 1198.00 798.00
L 1198.00 0.00
L 0.00 0.00
L 0.00 798.00
M 785.00 179.00 
C 787.01 188.36 785.75 198.79 786.00 209.00 C 786.25 219.21 785.89 229.63 786.00 240.00 C 786.11 250.37 785.95 261.56 786.00 272.00 C 786.05 282.44 785.99 292.53 786.00 303.00 C 786.01 313.47 786.02 324.53 786.00 335.00 C 785.98 345.47 786.07 355.55 786.00 366.00 C 785.93 376.45 786.15 387.60 786.00 398.00 C 785.85 408.40 786.35 418.74 786.00 429.00 C 785.65 439.26 786.76 451.03 786.00 461.00 C 785.24 470.97 787.73 482.72 786.00 492.00 C 784.27 501.28 790.19 515.81 785.00 523.00
C 780.49 529.25 767.99 529.62 761.92 534.92 C 755.86 540.23 745.65 542.03 738.77 546.77 C 731.89 551.51 723.24 554.57 715.77 558.77 C 708.30 562.97 699.67 567.11 691.92 570.92 C 684.18 574.74 676.75 579.43 668.92 582.92 C 661.10 586.42 653.51 591.36 645.92 594.92 C 638.33 598.48 629.51 604.43 621.97 606.97 C 614.44 609.52 606.78 619.18 598.92 618.92 C 591.07 618.67 583.47 609.86 575.77 607.23 C 568.07 604.60 559.86 598.17 551.92 595.08 C 543.99 591.99 536.91 586.42 528.92 583.08 C 520.94 579.73 513.81 574.75 505.92 571.08 C 498.04 567.40 489.96 562.73 482.30 558.70 C 474.65 554.66 466.76 551.16 459.25 546.75 C 451.75 542.33 443.67 539.20 435.92 535.08 C 428.18 530.95 420.34 525.84 412.00 523.00
C 412.00 408.33 412.00 293.67 412.00 179.00
C 421.83 183.13 431.01 188.48 440.69 193.31 C 450.38 198.13 459.22 203.28 469.08 207.92 C 478.93 212.57 488.24 218.29 498.08 222.92 C 507.91 227.56 516.41 232.95 526.23 237.77 C 536.04 242.59 545.74 246.95 555.23 252.77 C 564.71 258.59 574.44 260.34 583.70 267.30 C 592.95 274.27 603.97 275.56 613.23 268.23 C 622.49 260.90 632.20 259.57 641.69 253.70 C 651.19 247.82 660.73 243.65 670.25 238.25 C 679.76 232.84 689.30 229.13 698.70 223.70 C 708.10 218.26 718.28 214.08 727.70 208.70 C 737.11 203.31 746.63 199.26 756.08 194.08 C 765.52 188.89 775.43 184.00 785.00 179.00 Z"/>
</g>
<g fill="#010101" fill-opacity="1.00" stroke="None">
<path d="
M 785.00 523.00 
C 788.46 516.00 783.45 504.97 785.00 497.00 C 786.55 489.03 784.33 479.46 785.00 471.00 C 785.67 462.54 784.69 452.66 785.00 444.00 C 785.31 435.34 784.86 426.76 785.00 418.00 C 785.14 409.24 784.94 399.81 785.00 391.00 C 785.06 382.19 784.97 373.83 785.00 365.00 C 785.03 356.17 784.99 346.84 785.00 338.00 C 785.01 329.16 784.99 320.84 785.00 312.00 C 785.01 303.16 785.00 293.84 785.00 285.00 C 785.00 276.16 785.00 267.85 785.00 259.00 C 785.00 250.15 785.00 240.85 785.00 232.00 C 785.00 223.15 785.00 214.87 785.00 206.00 C 785.00 197.13 785.00 187.90 785.00 179.00
C 775.43 184.00 765.52 188.89 756.08 194.08 C 746.63 199.26 737.11 203.31 727.70 208.70 C 718.28 214.08 708.10 218.26 698.70 223.70 C 689.30 229.13 679.76 232.84 670.25 238.25 C 660.73 243.65 651.19 247.82 641.69 253.70 C 632.20 259.57 622.49 260.90 613.23 268.23 C 603.97 275.56 592.95 274.27 583.70 267.30 C 574.44 260.34 564.71 258.59 555.23 252.77 C 545.74 246.95 536.04 242.59 526.23 237.77 C 516.41 232.95 507.91 227.56 498.08 222.92 C 488.24 218.29 478.93 212.57 469.08 207.92 C 459.22 203.28 450.38 198.13 440.69 193.31 C 431.01 188.48 421.83 183.13 412.00 179.00
C 412.00 293.67 412.00 408.33 412.00 523.00
C 420.34 525.84 428.18 530.95 435.92 535.08 C 443.67 539.20 451.75 542.33 459.25 546.75 C 466.76 551.16 474.65 554.66 482.30 558.70 C 489.96 562.73 498.04 567.40 505.92 571.08 C 513.81 574.75 520.94 579.73 528.92 583.08 C 536.91 586.42 543.99 591.99 551.92 595.08 C 559.86 598.17 568.07 604.60 575.77 607.23 C 583.47 609.86 591.07 618.67 598.92 618.92 C 606.78 619.18 614.44 609.52 621.97 606.97 C 629.51 604.43 638.33 598.48 645.92 594.92 C 653.51 591.36 661.10 586.42 668.92 582.92 C 676.75 579.43 684.18 574.74 691.92 570.92 C 699.67 567.11 708.30 562.97 715.77 558.77 C 723.24 554.57 731.89 551.51 738.77 546.77 C 745.65 542.03 755.86 540.23 761.92 534.92 C 767.99 529.62 780.49 529.25 785.00 523.00
M 766.00 211.00 
C 766.01 311.00 766.00 411.00 766.00 511.00
C 757.03 514.20 749.54 519.82 740.77 523.77 C 732.00 527.72 723.73 532.90 714.92 536.92 C 706.12 540.95 698.11 546.19 689.31 550.31 C 680.50 554.42 672.40 559.07 663.77 563.77 C 655.14 568.47 646.29 571.51 637.92 576.92 C 629.55 582.32 620.60 583.82 612.30 590.30 C 604.01 596.78 594.81 596.64 586.31 590.70 C 577.80 584.75 569.45 582.12 560.77 577.23 C 552.09 572.34 543.71 568.42 534.92 564.08 C 526.14 559.73 518.07 554.87 509.31 550.69 C 500.54 546.52 492.52 541.39 483.77 537.23 C 475.02 533.06 466.39 528.49 457.92 524.08 C 449.46 519.66 441.21 515.62 432.92 511.08
C 432.00 411.00 432.00 311.00 432.00 211.00
C 442.24 216.04 451.91 221.76 462.23 226.77 C 472.55 231.78 482.39 237.18 492.69 242.31 C 503.00 247.43 512.70 252.76 523.08 257.92 C 533.45 263.09 542.91 268.07 553.23 273.77 C 563.55 279.47 573.56 282.22 583.69 289.31 C 593.83 296.39 604.55 297.06 614.70 289.69 C 624.84 282.33 634.88 280.11 645.08 274.08 C 655.27 268.04 665.01 263.66 675.23 258.23 C 685.45 252.80 695.13 247.67 705.23 242.23 C 715.33 236.79 725.78 232.38 735.70 226.70 C 745.61 221.01 756.06 216.67 766.00 211.00 Z"/>
</g>
<g fill="#606060" fill-opacity="1.00" stroke="None">
<path d="
M 785.00 523.00 
C 790.19 515.81 784.27 501.28 786.00 492.00 C 787.73 482.72 785.24 470.97 786.00 461.00 C 786.76 451.03 785.65 439.26 786.00 429.00 C 786.35 418.74 785.85 408.40 786.00 398.00 C 786.15 387.60 785.93 376.45 786.00 366.00 C 786.07 355.55 785.98 345.47 786.00 335.00 C 786.02 324.53 786.01 313.47 786.00 303.00 C 785.99 292.53 786.05 282.44 786.00 272.00 C 785.95 261.56 786.11 250.37 786.00 240.00 C 785.89 229.63 786.25 219.21 786.00 209.00 C 785.75 198.79 787.01 188.36 785.00 179.00
C 785.00 187.90 785.00 197.13 785.00 206.00 C 785.00 214.87 785.00 223.15 785.00 232.00 C 785.00 240.85 785.00 250.15 785.00 259.00 C 785.00 267.85 785.00 276.16 785.00 285.00 C 785.00 293.84 785.01 303.16 785.00 312.00 C 784.99 320.84 785.01 329.16 785.00 338.00 C 784.99 346.84 785.03 356.17 785.00 365.00 C 784.97 373.83 785.06 382.19 785.00 391.00 C 784.94 399.81 785.14 409.24 785.00 418.00 C 784.86 426.76 785.31 435.34 785.00 444.00 C 784.69 452.66 785.67 462.54 785.00 471.00 C 784.33 479.46 786.55 489.03 785.00 497.00 C 783.45 504.97 788.46 516.00 785.00 523.00 Z"/>
</g>
<g fill="#FBFBFB" fill-opacity="1.00" stroke="None">
<path d="
M 766.00 211.00 
C 756.06 216.67 745.61 221.01 735.70 226.70 C 725.78 232.38 715.33 236.79 705.23 242.23 C 695.13 247.67 685.45 252.80 675.23 258.23 C 665.01 263.66 655.27 268.04 645.08 274.08 C 634.88 280.11 624.84 282.33 614.70 289.69 C 604.55 297.06 593.83 296.39 583.69 289.31 C 573.56 282.22 563.55 279.47 553.23 273.77 C 542.91 268.07 533.45 263.09 523.08 257.92 C 512.70 252.76 503.00 247.43 492.69 242.31 C 482.39 237.18 472.55 231.78 462.23 226.77 C 451.91 221.76 442.24 216.04 432.00 211.00
C 432.00 311.00 432.00 411.00 432.00 511.00
C 441.21 515.62 449.46 519.66 457.92 524.08 C 466.39 528.49 475.02 533.06 483.77 537.23 C 492.52 541.39 500.54 546.52 509.31 550.69 C 518.07 554.87 526.14 559.73 534.92 564.08 C 543.71 568.42 552.09 572.34 560.77 577.23 C 569.45 582.12 577.80 584.75 586.31 590.70 C 594.81 596.64 604.01 596.78 612.30 590.30 C 620.60 583.82 629.55 582.32 637.92 576.92 C 646.29 571.51 655.14 568.47 663.77 563.77 C 672.40 559.07 680.50 554.42 689.31 550.31 C 698.11 546.19 706.12 540.95 714.92 536.92 C 723.73 532.90 732.00 527.72 740.77 523.77 C 749.54 519.82 757.03 514.20 766.00 511.00
C 766.00 411.00 766.01 311.00 766.00 211.00
M 485.00 298.00 
C 485.00 304.69 485.00 311.31 485.00 318.00 C 485.00 324.69 485.00 331.29 485.00 338.00 C 485.00 344.71 485.00 351.23 485.00 358.00 C 485.00 364.77 485.01 372.24 485.00 379.00 C 484.99 385.76 485.02 392.30 485.00 399.00 C 484.98 405.70 485.05 412.33 485.00 419.00 C 484.95 425.67 485.11 432.37 485.00 439.00 C 484.89 445.63 485.24 453.54 485.00 460.00 C 484.76 466.46 485.55 474.01 485.00 480.00 C 484.45 485.99 486.23 494.93 485.00 500.00 C 483.77 505.07 488.05 517.52 484.00 520.00
C 480.50 522.14 474.26 513.78 469.77 513.23 C 465.28 512.68 461.55 507.33 455.92 506.08 C 450.30 504.82 446.69 499.72 448.00 493.00 C 449.31 486.28 447.44 478.96 448.00 472.00 C 448.57 465.04 447.73 457.04 448.00 450.00 C 448.27 442.96 447.88 436.02 448.00 429.00 C 448.12 421.98 447.95 415.03 448.00 408.00 C 448.06 400.97 447.98 394.05 448.00 387.00 C 448.02 379.95 447.99 373.10 448.00 366.00 C 448.01 358.90 447.99 351.11 448.00 344.00 C 448.01 336.89 448.00 330.06 448.00 323.00 C 448.00 315.94 448.00 309.05 448.00 302.00 C 448.00 294.95 448.00 288.07 448.00 281.00 C 448.00 273.93 448.00 267.15 448.00 260.00 C 448.00 252.85 448.00 245.19 448.00 238.00
C 495.94 261.46 543.17 287.32 591.00 311.00
C 591.00 399.34 591.00 487.66 591.00 576.00
C 579.17 572.58 577.31 565.75 564.77 562.23 C 552.24 558.71 553.19 545.83 554.00 533.00 C 554.81 520.17 553.64 506.11 554.00 493.00 C 554.36 479.89 553.83 466.23 554.00 453.00 C 554.17 439.77 553.92 426.29 554.00 413.00 C 554.08 399.71 553.96 386.31 554.00 373.00 C 554.04 359.69 553.97 346.31 554.00 333.00
C 548.45 331.05 543.56 327.26 538.00 325.00
C 538.00 399.33 538.00 473.67 538.00 548.00
C 525.10 543.38 513.91 534.62 501.00 530.00
C 501.03 518.28 500.96 506.74 501.00 495.00 C 501.04 483.26 500.93 471.80 501.00 460.00 C 501.07 448.20 500.86 435.83 501.00 424.00 C 501.14 412.17 500.68 400.87 501.00 389.00 C 501.32 377.13 500.31 364.91 501.00 353.00 C 501.69 341.09 499.42 330.01 501.00 318.00 C 502.58 305.99 495.53 301.34 485.00 298.00
M 750.00 238.00 
C 752.57 258.47 746.57 282.93 750.00 303.00 C 753.43 323.07 738.90 332.87 727.75 345.75 C 716.60 358.64 707.58 367.76 697.08 380.08 C 686.59 392.40 675.48 401.92 667.00 415.00
C 676.94 419.38 687.40 424.98 697.08 429.92 C 706.75 434.87 716.87 440.53 726.23 445.77 C 735.59 451.01 751.99 454.29 750.00 467.00 C 748.01 479.71 755.33 499.64 743.31 505.31 C 731.28 510.97 725.27 516.29 713.00 520.00
C 712.22 509.31 714.04 494.26 713.00 484.00 C 711.96 473.74 698.89 474.31 691.92 469.08 C 684.96 463.84 676.25 460.94 668.75 456.25 C 661.26 451.55 651.68 448.28 644.00 444.00
C 643.98 457.58 644.03 472.56 644.00 486.00 C 643.97 499.44 644.05 515.07 644.00 528.00 C 643.95 540.93 647.58 556.77 635.31 561.31 C 623.03 565.84 618.40 571.05 607.00 576.00
C 607.00 487.67 607.00 399.33 607.00 311.00
C 619.91 306.42 631.13 297.69 644.00 293.00
C 644.66 323.17 642.67 354.66 645.00 384.00
C 651.91 374.49 660.45 367.04 667.75 357.75 C 675.05 348.46 684.37 341.96 690.92 331.92 C 697.46 321.87 710.95 317.88 713.00 305.00 C 715.05 292.11 711.47 269.75 713.00 256.00
C 725.86 251.31 737.07 242.59 750.00 238.00 Z"/>
</g>
<g fill="#010101" fill-opacity="1.00" stroke="None">
<path d="
M 484.00 520.00 
C 484.67 446.16 482.67 371.01 485.00 298.00
C 495.53 301.34 502.58 305.99 501.00 318.00 C 499.42 330.01 501.69 341.09 501.00 353.00 C 500.31 364.91 501.32 377.13 501.00 389.00 C 500.68 400.87 501.14 412.17 501.00 424.00 C 500.86 435.83 501.07 448.20 501.00 460.00 C 500.93 471.80 501.04 483.26 501.00 495.00 C 500.96 506.74 501.03 518.28 501.00 530.00
C 513.91 534.62 525.10 543.38 538.00 548.00
C 538.00 473.67 538.00 399.33 538.00 325.00
C 543.56 327.26 548.45 331.05 554.00 333.00
C 553.97 346.31 554.04 359.69 554.00 373.00 C 553.96 386.31 554.08 399.71 554.00 413.00 C 553.92 426.29 554.17 439.77 554.00 453.00 C 553.83 466.23 554.36 479.89 554.00 493.00 C 553.64 506.11 554.81 520.17 554.00 533.00 C 553.19 545.83 552.24 558.71 564.77 562.23 C 577.31 565.75 579.17 572.58 591.00 576.00
C 591.00 487.66 591.00 399.34 591.00 311.00
C 543.17 287.32 495.94 261.46 448.00 238.00
C 448.00 245.19 448.00 252.85 448.00 260.00 C 448.00 267.15 448.00 273.93 448.00 281.00 C 448.00 288.07 448.00 294.95 448.00 302.00 C 448.00 309.05 448.00 315.94 448.00 323.00 C 448.00 330.06 448.01 336.89 448.00 344.00 C 447.99 351.11 448.01 358.90 448.00 366.00 C 447.99 373.10 448.02 379.95 448.00 387.00 C 447.98 394.05 448.06 400.97 448.00 408.00 C 447.95 415.03 448.12 421.98 448.00 429.00 C 447.88 436.02 448.27 442.96 448.00 450.00 C 447.73 457.04 448.57 465.04 448.00 472.00 C 447.44 478.96 449.31 486.28 448.00 493.00 C 446.69 499.72 450.30 504.82 455.92 506.08 C 461.55 507.33 465.28 512.68 469.77 513.23 C 474.26 513.78 480.50 522.14 484.00 520.00 Z"/>
</g>
<g fill="#010101" fill-opacity="1.00" stroke="None">
<path d="
M 750.00 238.00 
C 737.07 242.59 725.86 251.31 713.00 256.00
C 711.47 269.75 715.05 292.11 713.00 305.00 C 710.95 317.88 697.46 321.87 690.92 331.92 C 684.37 341.96 675.05 348.46 667.75 357.75 C 660.45 367.04 651.91 374.49 645.00 384.00
C 642.67 354.66 644.66 323.17 644.00 293.00
C 631.13 297.69 619.91 306.42 607.00 311.00
C 607.00 399.33 607.00 487.67 607.00 576.00
C 618.40 571.05 623.03 565.84 635.31 561.31 C 647.58 556.77 643.95 540.93 644.00 528.00 C 644.05 515.07 643.97 499.44 644.00 486.00 C 644.03 472.56 643.98 457.58 644.00 444.00
C 651.68 448.28 661.26 451.55 668.75 456.25 C 676.25 460.94 684.96 463.84 691.92 469.08 C 698.89 474.31 711.96 473.74 713.00 484.00 C 714.04 494.26 712.22 509.31 713.00 520.00
C 725.27 516.29 731.28 510.97 743.31 505.31 C 755.33 499.64 748.01 479.71 750.00 467.00 C 751.99 454.29 735.59 451.01 726.23 445.77 C 716.87 440.53 706.75 434.87 697.08 429.92 C 687.40 424.98 676.94 419.38 667.00 415.00
C 675.48 401.92 686.59 392.40 697.08 380.08 C 707.58 367.76 716.60 358.64 727.75 345.75 C 738.90 332.87 753.43 323.07 750.00 303.00 C 746.57 282.93 752.57 258.47 750.00 238.00 Z"/>
</g>
<g fill="#646464" fill-opacity="1.00" stroke="None">
<path d="
M 484.00 520.00 
C 488.05 517.52 483.77 505.07 485.00 500.00 C 486.23 494.93 484.45 485.99 485.00 480.00 C 485.55 474.01 484.76 466.46 485.00 460.00 C 485.24 453.54 484.89 445.63 485.00 439.00 C 485.11 432.37 484.95 425.67 485.00 419.00 C 485.05 412.33 484.98 405.70 485.00 399.00 C 485.02 392.30 484.99 385.76 485.00 379.00 C 485.01 372.24 485.00 364.77 485.00 358.00 C 485.00 351.23 485.00 344.71 485.00 338.00 C 485.00 331.29 485.00 324.69 485.00 318.00 C 485.00 311.31 485.00 304.69 485.00 298.00
C 482.67 371.01 484.67 446.16 484.00 520.00 Z"/>
</g>
</svg>